<svg width="972" height="466" viewBox="0 0 972 466" fill="none" xmlns="http://www.w3.org/2000/svg">
<path d="M87.19 356.4C89.3758 352.585 90.5046 348.257 90.46 343.86C90.46 332.53 83.46 323.34 74.79 323.34C66.12 323.34 59.12 332.53 59.12 343.86C59.0754 348.257 60.2042 352.585 62.39 356.4C60.2459 360.232 59.1201 364.549 59.1201 368.94C59.1201 373.331 60.2459 377.648 62.39 381.48C60.2459 385.312 59.1201 389.629 59.1201 394.02C59.1201 398.411 60.2459 402.728 62.39 406.56C60.2459 410.392 59.1201 414.709 59.1201 419.1C59.1201 423.491 60.2459 427.808 62.39 431.64C60.2029 435.454 59.074 439.784 59.12 444.18C59.12 455.51 66.12 464.69 74.79 464.69C83.46 464.69 90.46 455.51 90.46 444.18C90.5042 439.787 89.3754 435.461 87.19 431.65C89.3341 427.818 90.46 423.501 90.46 419.11C90.46 414.719 89.3341 410.402 87.19 406.57C89.3341 402.738 90.46 398.421 90.46 394.03C90.46 389.639 89.3341 385.322 87.19 381.49C89.3341 377.658 90.46 373.341 90.46 368.95C90.46 364.559 89.3341 360.242 87.19 356.41V356.4Z" fill="#3F3D56"/>
<path d="M74.7399 339.3C83.3942 339.3 90.41 330.113 90.41 318.78C90.41 307.447 83.3942 298.26 74.7399 298.26C66.0856 298.26 59.0699 307.447 59.0699 318.78C59.0699 330.113 66.0856 339.3 74.7399 339.3Z" fill="#3F3D56"/>
<path d="M74.7399 314.22C83.3942 314.22 90.41 305.033 90.41 293.7C90.41 282.367 83.3942 273.18 74.7399 273.18C66.0856 273.18 59.0699 282.367 59.0699 293.7C59.0699 305.033 66.0856 314.22 74.7399 314.22Z" fill="#3F3D56"/>
<path d="M16.0599 122.09C13.9237 119.359 11.9758 116.486 10.2299 113.49L51.4099 106.73L6.86994 107.06C2.59802 97.7625 0.267847 87.6912 0.0219677 77.4623C-0.223912 67.2334 1.61967 57.0619 5.43994 47.5699L65.1899 78.5699L10.0799 38.0599C15.2269 29.1077 22.165 21.3133 30.4606 15.1638C38.7562 9.01432 48.231 4.64194 58.2929 2.31996C68.3548 -0.00203443 78.7875 -0.223729 88.939 1.66871C99.0904 3.56115 108.742 7.52704 117.292 13.3186C125.841 19.1101 133.104 26.6027 138.627 35.3282C144.149 44.0537 147.813 53.8244 149.389 64.0299C150.964 74.2353 150.418 84.656 147.784 94.6408C145.15 104.626 140.485 113.96 134.08 122.06C137.415 126.304 140.285 130.893 142.64 135.75L89.1899 163.55L146.19 144.42C150.191 156.253 151.18 168.896 149.067 181.207C146.955 193.518 141.807 205.108 134.09 214.93C142.805 226.004 148.227 239.306 149.738 253.317C151.248 267.327 148.784 281.48 142.629 294.156C136.475 306.833 126.876 317.521 114.933 324.999C102.989 332.477 89.1816 336.443 75.0899 336.443C60.9983 336.443 47.1911 332.477 35.2473 324.999C23.3036 317.521 13.7054 306.833 7.5504 294.156C1.39543 281.48 -1.06783 267.327 0.442317 253.317C1.95246 239.306 7.37505 226.004 16.0899 214.93C5.68641 201.693 0.0309093 185.346 0.0309093 168.51C0.0309093 151.674 5.68641 135.327 16.0899 122.09H16.0599Z" fill="#3F51B5"/>
<path opacity="0.1" d="M150.19 168.51C150.215 185.35 144.557 201.706 134.13 214.93C142.845 226.004 148.267 239.306 149.778 253.317C151.288 267.327 148.824 281.48 142.67 294.156C136.515 306.833 126.916 317.521 114.973 324.999C103.029 332.477 89.2216 336.443 75.13 336.443C61.0383 336.443 47.2311 332.477 35.2873 324.999C23.3436 317.521 13.7454 306.833 7.59041 294.156C1.43545 281.48 -1.0278 267.327 0.482343 253.317C1.99249 239.306 7.41507 226.004 16.13 214.93C5.99997 202.15 150.19 160.08 150.19 168.51Z" fill="black"/>
<path d="M894.25 382.78C895.914 379.878 896.774 376.585 896.74 373.24C896.74 364.62 891.41 357.64 884.82 357.64C878.23 357.64 872.9 364.64 872.9 373.24C872.867 376.585 873.726 379.878 875.39 382.78C873.757 385.695 872.9 388.979 872.9 392.32C872.9 395.661 873.757 398.946 875.39 401.86C873.757 404.775 872.9 408.059 872.9 411.4C872.9 414.741 873.757 418.026 875.39 420.94C873.757 423.853 872.9 427.136 872.9 430.475C872.9 433.814 873.757 437.097 875.39 440.01C873.727 442.912 872.868 446.205 872.9 449.55C872.9 458.17 878.24 465.16 884.82 465.16C891.4 465.16 896.74 458.16 896.74 449.55C896.773 446.205 895.913 442.912 894.25 440.01C895.883 437.097 896.74 433.814 896.74 430.475C896.74 427.136 895.883 423.853 894.25 420.94C895.883 418.026 896.74 414.741 896.74 411.4C896.74 408.059 895.883 404.775 894.25 401.86C895.883 398.946 896.74 395.661 896.74 392.32C896.74 388.979 895.883 385.695 894.25 382.78V382.78Z" fill="#3F3D56"/>
<path d="M884.82 369.78C891.403 369.78 896.74 362.791 896.74 354.17C896.74 345.549 891.403 338.56 884.82 338.56C878.237 338.56 872.9 345.549 872.9 354.17C872.9 362.791 878.237 369.78 884.82 369.78Z" fill="#3F3D56"/>
<path d="M884.82 350.7C891.403 350.7 896.74 343.711 896.74 335.09C896.74 326.469 891.403 319.48 884.82 319.48C878.237 319.48 872.9 326.469 872.9 335.09C872.9 343.711 878.237 350.7 884.82 350.7Z" fill="#3F3D56"/>
<path d="M840.19 204.55C838.56 202.475 837.077 200.29 835.75 198.01L867.08 192.86L833.19 193.12C829.944 186.045 828.174 178.384 827.986 170.602C827.799 162.821 829.199 155.083 832.1 147.86L877.56 171.45L835.64 140.65C839.571 133.87 844.855 127.971 851.164 123.321C857.473 118.672 864.671 115.37 872.311 113.622C879.951 111.875 887.869 111.718 895.572 113.162C903.275 114.607 910.598 117.621 917.086 122.018C923.574 126.414 929.087 132.099 933.283 138.719C937.479 145.338 940.268 152.751 941.475 160.494C942.683 168.238 942.284 176.147 940.303 183.73C938.322 191.313 934.801 198.407 929.96 204.57C932.502 207.795 934.688 211.285 936.48 214.98L895.81 236.11L939.19 221.53C942.24 230.531 942.995 240.151 941.387 249.518C939.779 258.885 935.858 267.702 929.98 275.17C936.607 283.594 940.73 293.712 941.877 304.369C943.024 315.025 941.149 325.789 936.467 335.43C931.785 345.072 924.484 353.201 915.399 358.888C906.315 364.575 895.813 367.591 885.095 367.591C874.377 367.591 863.875 364.575 854.791 358.888C845.706 353.201 838.405 345.072 833.723 335.43C829.041 325.789 827.166 315.025 828.313 304.369C829.46 293.712 833.583 283.594 840.21 275.17C832.293 265.103 827.989 252.667 827.989 239.86C827.989 227.053 832.293 214.617 840.21 204.55H840.19Z" fill="#3F51B5"/>
<path opacity="0.1" d="M942.19 239.86C942.209 252.672 937.9 265.115 929.96 275.17C936.587 283.594 940.71 293.712 941.857 304.369C943.004 315.025 941.129 325.789 936.447 335.431C931.765 345.072 924.464 353.201 915.379 358.888C906.295 364.575 895.793 367.591 885.075 367.591C874.357 367.591 863.855 364.575 854.771 358.888C845.686 353.201 838.385 345.072 833.703 335.431C829.021 325.789 827.146 315.025 828.293 304.369C829.44 293.712 833.563 283.594 840.19 275.17C832.53 265.45 942.19 233.45 942.19 239.86Z" fill="black"/>
<path d="M138.62 458.71C140.68 454.91 138.35 450.25 135.62 446.85C132.89 443.45 129.67 439.93 129.74 435.6C129.84 429.39 136.43 425.72 141.74 422.43C145.652 419.984 149.26 417.084 152.49 413.79C153.84 412.521 154.957 411.025 155.79 409.37C156.88 406.94 156.85 404.18 156.79 401.52C156.557 392.653 156.117 383.793 155.47 374.94" stroke="#3F3D56" stroke-width="4" stroke-miterlimit="10"/>
<path d="M165.49 374.46C165.414 372.837 164.93 371.259 164.085 369.871C163.239 368.484 162.058 367.331 160.65 366.52L158.48 370.81L158.55 365.62C156.579 365.039 154.475 365.1 152.541 365.793C150.608 366.486 148.944 367.776 147.791 369.476C146.638 371.176 146.055 373.199 146.127 375.252C146.198 377.305 146.92 379.282 148.189 380.898C149.457 382.514 151.207 383.685 153.184 384.242C155.162 384.799 157.265 384.713 159.19 383.996C161.116 383.28 162.763 381.97 163.896 380.256C165.028 378.542 165.586 376.512 165.49 374.46V374.46Z" fill="#3F51B5"/>
<path d="M148.19 440.05C147.213 441.951 145.636 443.476 143.703 444.388C141.77 445.299 139.589 445.546 137.501 445.089C135.413 444.633 133.535 443.499 132.158 441.864C130.782 440.229 129.984 438.185 129.89 436.05C129.83 434.711 130.044 433.373 130.52 432.12C131.228 430.283 132.478 428.705 134.104 427.596C135.731 426.486 137.656 425.898 139.624 425.909C141.593 425.919 143.512 426.529 145.126 427.656C146.74 428.784 147.972 430.375 148.66 432.22L142.61 437.15L149.26 435.61C149.266 437.155 148.899 438.678 148.19 440.05V440.05Z" fill="#3F51B5"/>
<path d="M143.42 421.23C142.149 421.289 140.878 421.097 139.681 420.666C138.484 420.234 137.384 419.57 136.443 418.713C135.503 417.856 134.74 416.822 134.199 415.67C133.658 414.518 133.349 413.271 133.29 412C133.217 410.484 133.505 408.973 134.13 407.59C134.711 406.294 135.568 405.142 136.643 404.214C137.718 403.286 138.983 402.605 140.35 402.22V406.22L142.54 401.88C143.811 401.821 145.082 402.013 146.279 402.445C147.476 402.876 148.576 403.54 149.517 404.397C150.457 405.254 151.22 406.288 151.761 407.44C152.302 408.592 152.611 409.839 152.67 411.11C152.728 412.226 152.589 413.343 152.26 414.41C151.669 416.319 150.502 417.999 148.92 419.22C147.337 420.44 145.417 421.142 143.42 421.23Z" fill="#3F51B5"/>
<path d="M166.95 405.58C165.447 405.66 163.946 405.389 162.566 404.789C161.185 404.189 159.964 403.276 158.997 402.122C158.031 400.968 157.346 399.605 156.997 398.141C156.649 396.677 156.646 395.152 156.988 393.686C157.331 392.22 158.01 390.855 158.971 389.697C159.933 388.539 161.151 387.621 162.528 387.015C163.906 386.409 165.406 386.132 166.909 386.206C168.413 386.279 169.878 386.702 171.19 387.44L169.48 392.14L173 388.75C173.935 389.605 174.693 390.636 175.23 391.784C175.767 392.932 176.073 394.174 176.13 395.44C176.178 396.337 176.097 397.236 175.89 398.11C175.411 400.156 174.28 401.991 172.668 403.339C171.055 404.686 169.049 405.473 166.95 405.58V405.58Z" fill="#3F51B5"/>
<path opacity="0.1" d="M164.19 377.04C161.95 377.29 159.78 377.98 157.53 378.12C155.28 378.26 152.82 377.72 151.4 375.98C150.739 374.964 150.141 373.909 149.61 372.82C148.998 371.867 148.16 371.081 147.17 370.53C146.545 371.758 146.189 373.106 146.126 374.483C146.063 375.859 146.295 377.234 146.806 378.514C147.316 379.794 148.094 380.951 149.087 381.906C150.08 382.862 151.265 383.595 152.564 384.056C153.863 384.517 155.245 384.696 156.618 384.581C157.992 384.465 159.325 384.058 160.528 383.386C161.732 382.715 162.778 381.794 163.598 380.686C164.417 379.578 164.991 378.307 165.28 376.96C164.92 376.98 164.55 377 164.19 377.04Z" fill="black"/>
<path opacity="0.1" d="M166.95 405.58C165.279 405.657 163.616 405.301 162.124 404.546C160.631 403.791 159.359 402.663 158.431 401.271C157.503 399.879 156.951 398.271 156.828 396.603C156.705 394.934 157.016 393.263 157.73 391.75C158.503 392.284 159.165 392.964 159.68 393.75C160.258 394.853 160.899 395.921 161.6 396.95C163.11 398.72 165.69 399.3 168.03 399.2C170.37 399.1 172.62 398.42 174.95 398.2C175.27 398.2 175.6 398.2 175.95 398.14C175.463 400.19 174.321 402.025 172.697 403.368C171.073 404.71 169.055 405.487 166.95 405.58V405.58Z" fill="black"/>
<path opacity="0.1" d="M143.42 421.23C142.149 421.289 140.878 421.097 139.681 420.666C138.484 420.234 137.384 419.57 136.443 418.713C135.503 417.856 134.74 416.822 134.199 415.67C133.658 414.518 133.349 413.271 133.29 412C133.217 410.484 133.505 408.973 134.13 407.59C134.928 408.128 135.623 408.806 136.18 409.59C136.815 410.717 137.516 411.806 138.28 412.85C139.91 414.68 142.66 415.32 145.14 415.26C147.62 415.2 149.85 414.62 152.24 414.43C151.646 416.332 150.481 418.005 148.903 419.222C147.325 420.439 145.411 421.14 143.42 421.23V421.23Z" fill="black"/>
<path opacity="0.1" d="M148.19 440.05C147.213 441.951 145.636 443.476 143.703 444.388C141.77 445.299 139.589 445.546 137.501 445.089C135.413 444.633 133.535 443.499 132.158 441.864C130.782 440.229 129.984 438.185 129.89 436.05C129.83 434.711 130.044 433.374 130.52 432.12C131.322 432.643 132.04 433.283 132.65 434.02C133.451 435.212 134.316 436.361 135.24 437.46C137.24 439.4 140.42 440.21 143.24 440.28C144.893 440.3 146.546 440.224 148.19 440.05V440.05Z" fill="black"/>
<path d="M124.01 457.09C124.01 457.09 131.66 454.09 134.01 452.46C136.36 450.83 145.78 448.85 146.35 451.46C146.92 454.07 157.79 464.58 149.19 464.65C140.59 464.72 129.12 466.07 126.82 464.65C124.52 463.23 124.01 457.09 124.01 457.09Z" fill="#656380"/>
<path opacity="0.2" d="M149.31 463.73C140.68 463.8 129.25 465.15 126.95 463.73C125.2 462.66 124.5 458.83 124.26 457.06H124.01C124.01 457.06 124.49 463.23 126.79 464.63C129.09 466.03 140.52 464.69 149.16 464.63C151.65 464.63 152.51 463.72 152.47 462.41C152.12 463.22 151.19 463.72 149.31 463.73Z" fill="black"/>
<path d="M672.37 459.25C670.99 456.7 672.56 453.57 674.37 451.25C676.18 448.93 678.37 446.6 678.31 443.69C678.25 439.52 673.82 437.06 670.31 434.85C667.688 433.206 665.268 431.259 663.1 429.05C662.19 428.188 661.438 427.173 660.88 426.05C660.27 424.361 660.042 422.558 660.21 420.77C660.37 414.817 660.667 408.87 661.1 402.93" stroke="#3F3D56" stroke-width="4" stroke-miterlimit="10"/>
<path d="M654.33 402.65C654.382 401.56 654.707 400.501 655.274 399.57C655.842 398.639 656.635 397.865 657.58 397.32L659.04 400.2L658.99 396.71C659.687 396.505 660.414 396.42 661.14 396.46C662.426 396.521 663.666 396.962 664.701 397.727C665.737 398.492 666.523 399.548 666.958 400.76C667.394 401.971 667.461 403.285 667.15 404.535C666.839 405.785 666.164 406.914 665.211 407.78C664.258 408.646 663.07 409.21 661.796 409.401C660.523 409.592 659.221 409.4 658.056 408.851C656.892 408.302 655.916 407.42 655.252 406.316C654.589 405.212 654.268 403.936 654.33 402.65V402.65Z" fill="#3F51B5"/>
<path d="M665.94 446.72C666.624 448.045 667.743 449.094 669.109 449.692C670.474 450.29 672.004 450.4 673.442 450.004C674.879 449.608 676.137 448.73 677.004 447.517C677.871 446.304 678.294 444.83 678.203 443.341C678.112 441.853 677.513 440.441 676.505 439.343C675.496 438.244 674.141 437.526 672.666 437.308C671.192 437.089 669.686 437.385 668.404 438.145C667.121 438.904 666.138 440.082 665.62 441.48L669.69 444.78L665.21 443.78C665.219 444.804 665.469 445.811 665.94 446.72V446.72Z" fill="#3F51B5"/>
<path d="M669.19 434.08C670.044 434.12 670.897 433.992 671.701 433.702C672.505 433.412 673.244 432.966 673.876 432.39C674.508 431.815 675.019 431.12 675.382 430.346C675.745 429.572 675.952 428.734 675.99 427.88C676.048 426.849 675.856 425.82 675.43 424.88C675.041 424.009 674.465 423.235 673.742 422.613C673.02 421.991 672.169 421.536 671.25 421.28V423.96L669.77 421.04C668.045 420.961 666.36 421.57 665.083 422.732C663.807 423.894 663.043 425.516 662.96 427.24C662.93 427.99 663.025 428.74 663.24 429.46C663.631 430.752 664.413 431.89 665.479 432.718C666.545 433.546 667.842 434.022 669.19 434.08V434.08Z" fill="#3F51B5"/>
<path d="M653.35 423.57C654.357 423.617 655.361 423.43 656.284 423.023C657.206 422.616 658.021 422.001 658.665 421.225C659.309 420.449 659.764 419.535 659.994 418.553C660.224 417.572 660.223 416.55 659.991 415.569C659.759 414.588 659.303 413.674 658.657 412.9C658.012 412.125 657.196 411.511 656.272 411.106C655.349 410.701 654.345 410.516 653.338 410.565C652.331 410.614 651.349 410.897 650.47 411.39L651.62 414.54L649.26 412.27C647.994 413.43 647.238 415.044 647.16 416.76C647.127 417.364 647.181 417.971 647.32 418.56C647.644 419.937 648.408 421.17 649.496 422.074C650.584 422.978 651.937 423.503 653.35 423.57V423.57Z" fill="#3F51B5"/>
<path opacity="0.1" d="M655.19 404.41C656.69 404.57 658.19 405.04 659.66 405.13C660.416 405.226 661.185 405.142 661.902 404.885C662.62 404.628 663.267 404.204 663.79 403.65C664.232 402.966 664.636 402.258 665 401.53C665.409 400.891 665.969 400.362 666.63 399.99C667.147 400.992 667.389 402.114 667.33 403.24C667.251 404.815 666.603 406.307 665.506 407.44C664.41 408.573 662.939 409.269 661.368 409.4C659.797 409.531 658.231 409.087 656.963 408.151C655.694 407.215 654.808 405.85 654.47 404.31C654.72 404.36 654.96 404.38 655.19 404.41Z" fill="black"/>
<path opacity="0.1" d="M653.35 423.57C654.472 423.625 655.59 423.388 656.593 422.882C657.597 422.377 658.452 421.62 659.076 420.685C659.699 419.75 660.07 418.669 660.151 417.549C660.233 416.428 660.022 415.305 659.54 414.29C659.003 414.648 658.544 415.111 658.19 415.65C657.807 416.394 657.376 417.112 656.9 417.8C656.339 418.357 655.661 418.781 654.916 419.042C654.17 419.303 653.376 419.395 652.59 419.31C651.02 419.24 649.5 418.79 647.94 418.65C647.72 418.65 647.5 418.65 647.28 418.65C647.623 420.017 648.4 421.235 649.495 422.122C650.589 423.009 651.942 423.517 653.35 423.57V423.57Z" fill="black"/>
<path opacity="0.1" d="M669.19 434.08C670.044 434.12 670.897 433.992 671.701 433.702C672.505 433.412 673.244 432.966 673.876 432.39C674.508 431.814 675.019 431.12 675.382 430.346C675.745 429.572 675.951 428.734 675.99 427.88C676.048 426.849 675.856 425.82 675.43 424.88C674.896 425.232 674.432 425.68 674.06 426.2C673.633 426.962 673.158 427.697 672.64 428.4C672.029 428.975 671.303 429.416 670.511 429.693C669.718 429.97 668.877 430.078 668.04 430.01C666.42 430.01 664.87 429.58 663.27 429.46C663.659 430.747 664.437 431.882 665.497 432.71C666.557 433.537 667.847 434.015 669.19 434.08V434.08Z" fill="black"/>
<path opacity="0.1" d="M665.94 446.72C666.71 448.186 668.01 449.304 669.575 449.845C671.14 450.387 672.852 450.311 674.364 449.635C675.875 448.958 677.072 447.731 677.71 446.203C678.349 444.675 678.381 442.961 677.8 441.41C677.263 441.76 676.781 442.188 676.37 442.68C675.834 443.482 675.253 444.253 674.63 444.99C673.122 446.254 671.207 446.929 669.24 446.89C668.138 446.894 667.036 446.837 665.94 446.72V446.72Z" fill="black"/>
<path d="M682.19 457.47C682.19 457.47 677.05 456.15 675.5 455.05C673.95 453.95 667.6 452.63 667.22 454.4C666.84 456.17 659.5 463.19 665.3 463.24C671.1 463.29 678.77 463.5 680.3 462.56C681.83 461.62 682.19 457.47 682.19 457.47Z" fill="#656380"/>
<path opacity="0.2" d="M665.19 462.65C670.99 462.65 678.67 462.91 680.19 461.97C681.37 461.26 681.84 458.68 681.99 457.5H682.19C682.19 457.5 681.86 461.65 680.32 462.59C678.78 463.53 671.1 463.31 665.32 463.27C663.64 463.27 663.07 462.66 663.1 461.78C663.31 462.28 663.95 462.65 665.19 462.65Z" fill="black"/>
<path d="M704.39 463.24H195.39V465.24H704.39V463.24Z" fill="#3F3D56"/>
<path d="M972 463H722V465H972V463Z" fill="#3F3D56"/>
<path d="M177.39 463.24H8.39001V465.24H177.39V463.24Z" fill="#3F3D56"/>
</svg>
